<svg width="220" height="220" viewBox="280 0 220 220" fill="none" xmlns="http://www.w3.org/2000/svg">
  <!-- Lemon leaf -->
  <path d="M325.887 32.5004C359.887 -7.49964 393.72 13.5004 406.387 29.0004H407.387C407.787 20.6006 413.22 6.1669 415.887 0L425.887 7C418.287 12.6 418.72 34.3333 419.887 44.5H399.387L325.887 32.5004Z" fill="#41A984"/>
  <!-- Lemon top half -->
  <path d="M451.387 66.5C483.787 90.5 489.887 121 486.887 133C459.687 155 415.22 146.5 396.387 139.5C387.187 121.1 361.887 107 349.887 102C350.687 92.4 364.22 77.1667 371.387 71C374.987 70.2 393.22 52 401.887 43H403.887H418.887C427.287 52.2 444.053 62.5 451.387 66.5Z" fill="#FFF212"/>
  <!-- Lemon bottom half -->
  <path d="M345.4 148C341 124 347.233 104.667 350.9 98C377.701 110.8 391.733 128.667 395.398 136C435.397 152.831 473.553 139.346 487.387 130.5L486.898 143C486.498 150.2 475.398 160.667 469.898 165C462.698 171.8 455.565 181.167 452.898 185C426.898 207 413.732 205.167 410.398 201.5L376.898 182C361.698 175.2 349.566 156.5 345.4 148Z" fill="#FDBC31"/>
  <!-- White dots -->
  <circle cx="443.887" cy="102" r="6" fill="white"/>
  <circle cx="424.887" cy="100" r="6" fill="white"/>
  <circle cx="434.887" cy="88" r="6" fill="white"/>
</svg>
