<svg width="976" height="220" viewBox="0 0 976 220" fill="none" xmlns="http://www.w3.org/2000/svg">
<path d="M30.3538 27.0742V173.001H0V27.0742H30.3538Z" fill="#F2DB30"/>
<path d="M99.3612 176.138C88.1033 176.138 78.4128 173.858 70.29 169.298C62.2146 164.69 55.9919 158.182 51.6217 149.775C47.2515 141.319 45.0664 131.32 45.0664 119.777C45.0664 108.519 47.2515 98.6386 51.6217 90.1358C55.9919 81.6329 62.1434 75.0064 70.0762 70.2562C78.0566 65.506 87.4145 63.1309 98.1499 63.1309C105.37 63.1309 112.092 64.2947 118.315 66.6223C124.585 68.9024 130.048 72.3463 134.703 76.954C139.405 81.5617 143.063 87.3569 145.676 94.3397C148.288 101.275 149.595 109.398 149.595 118.708V127.045H57.1794V108.234H121.022C121.022 103.864 120.072 99.9924 118.172 96.6198C116.272 93.2472 113.636 90.6108 110.263 88.7107C106.938 86.7631 103.066 85.7893 98.6487 85.7893C94.041 85.7893 89.9558 86.8581 86.3932 88.9957C82.878 91.0858 80.1229 93.9122 78.1278 97.4748C76.1327 100.99 75.1115 104.909 75.0639 109.232V127.116C75.0639 132.531 76.0615 137.21 78.0566 141.153C80.0992 145.096 82.973 148.136 86.6782 150.273C90.3834 152.411 94.7773 153.48 99.86 153.48C103.233 153.48 106.32 153.005 109.123 152.055C111.926 151.105 114.324 149.68 116.319 147.78C118.315 145.879 119.835 143.552 120.88 140.797L148.953 142.649C147.528 149.395 144.607 155.285 140.189 160.32C135.819 165.308 130.166 169.203 123.231 172.006C116.343 174.761 108.387 176.138 99.3612 176.138Z" fill="#F2DB30"/>
<path d="M166.484 174.001V64.5559H195.413V83.8655H196.696C198.976 77.4527 202.776 72.3938 208.096 68.6886C213.416 64.9834 219.782 63.1309 227.192 63.1309C234.697 63.1309 241.086 65.0072 246.359 68.7598C251.632 72.465 255.147 77.5002 256.905 83.8655H258.045C260.277 77.5952 264.315 72.5838 270.158 68.8311C276.048 65.0309 283.007 63.1309 291.035 63.1309C301.248 63.1309 309.537 66.3847 315.902 72.8925C322.315 79.3528 325.521 88.5207 325.521 100.396V174.001H295.239V106.381C295.239 100.301 293.624 95.741 290.393 92.7009C287.163 89.6607 283.126 88.1407 278.28 88.1407C272.77 88.1407 268.471 89.8983 265.384 93.4134C262.296 96.8811 260.752 101.465 260.752 107.165V174.001H231.325V105.74C231.325 100.372 229.781 96.0973 226.693 92.9146C223.653 89.732 219.639 88.1407 214.651 88.1407C211.279 88.1407 208.239 88.9957 205.531 90.7058C202.871 92.3684 200.757 94.7197 199.19 97.7598C197.622 100.752 196.838 104.268 196.838 108.305V174.001H166.484Z" fill="#F2DB30"/>
<path d="M535.838 109.728V173.001H505.484V63.5559H534.413V82.8655H535.696C538.118 76.5002 542.18 71.465 547.88 67.7598C553.58 64.0072 560.492 62.1309 568.615 62.1309C576.215 62.1309 582.841 63.7934 588.494 67.1186C594.147 70.4437 598.541 75.1939 601.676 81.3692C604.811 87.4969 606.379 94.8123 606.379 103.315V173.001H576.025V108.73C576.072 102.033 574.362 96.8074 570.895 93.0547C567.427 89.2545 562.653 87.3544 556.573 87.3544C552.488 87.3544 548.877 88.2332 545.742 89.9908C542.655 91.7484 540.232 94.3135 538.475 97.6861C536.764 101.011 535.886 105.025 535.838 109.728Z" fill="#F2DB30"/>
<path d="M645.484 218.042V67.5559H675.411V85.9392H676.764C678.095 82.9941 680.018 80.0015 682.536 76.9613C685.101 73.8737 688.426 71.3086 692.511 69.266C696.644 67.1759 701.774 66.1309 707.902 66.1309C715.882 66.1309 723.245 68.2209 729.991 72.4011C736.736 76.5338 742.127 82.7803 746.165 91.1407C750.203 99.4535 752.221 109.88 752.221 122.421C752.221 134.629 750.25 144.937 746.307 153.345C742.412 161.705 737.092 168.046 730.347 172.369C723.649 176.644 716.144 178.782 707.831 178.782C701.941 178.782 696.929 177.808 692.796 175.861C688.711 173.913 685.362 171.467 682.75 168.522C680.137 165.529 678.142 162.513 676.764 159.472H675.838V218.042H645.484ZM675.197 122.278C675.197 128.786 676.099 134.463 677.905 139.308C679.71 144.153 682.322 147.929 685.742 150.637C689.163 153.297 693.319 154.627 698.212 154.627C703.152 154.627 707.332 153.273 710.752 150.566C714.172 147.811 716.761 144.01 718.519 139.165C720.324 134.273 721.226 128.644 721.226 122.278C721.226 115.961 720.348 110.403 718.59 105.605C716.832 100.807 714.244 97.0547 710.823 94.3471C707.403 91.6395 703.199 90.2856 698.212 90.2856C693.271 90.2856 689.091 91.592 685.671 94.2046C682.298 96.8172 679.71 100.522 677.905 105.32C676.099 110.118 675.197 115.77 675.197 122.278Z" fill="#4DA881"/>
<path d="M794.695 175.067C787.712 175.067 781.489 173.856 776.026 171.433C770.563 168.963 766.241 165.329 763.058 160.531C759.923 155.686 758.355 149.653 758.355 142.433C758.355 136.353 759.472 131.246 761.704 127.114C763.937 122.981 766.977 119.656 770.825 117.138C774.672 114.621 779.043 112.721 783.935 111.438C788.876 110.155 794.053 109.253 799.468 108.73C805.834 108.065 810.964 107.448 814.859 106.878C818.754 106.26 821.581 105.358 823.338 104.17C825.096 102.983 825.975 101.225 825.975 98.8974V98.4699C825.975 93.9572 824.55 90.4658 821.699 87.9957C818.897 85.5256 814.907 84.2906 809.729 84.2906C804.266 84.2906 799.92 85.5019 796.69 87.9245C793.459 90.2996 791.322 93.2922 790.277 96.9024L762.203 94.6223C763.628 87.972 766.431 82.2242 770.611 77.379C774.791 72.4863 780.183 68.7336 786.785 66.121C793.436 63.4609 801.131 62.1309 809.871 62.1309C815.952 62.1309 821.771 62.8434 827.328 64.2684C832.934 65.6935 837.898 67.9024 842.22 70.895C846.591 73.8876 850.034 77.7353 852.552 82.438C855.07 87.0932 856.328 92.6747 856.328 99.1824V173.001H827.542V157.824H826.687C824.93 161.244 822.578 164.26 819.633 166.873C816.688 169.438 813.149 171.457 809.016 172.929C804.884 174.354 800.11 175.067 794.695 175.067ZM803.387 154.119C807.853 154.119 811.795 153.24 815.215 151.482C818.636 149.677 821.319 147.255 823.267 144.214C825.215 141.174 826.188 137.73 826.188 133.883V122.268C825.238 122.886 823.932 123.456 822.269 123.979C820.654 124.454 818.826 124.905 816.783 125.332C814.74 125.712 812.698 126.069 810.655 126.401C808.613 126.686 806.76 126.947 805.097 127.185C801.535 127.707 798.423 128.539 795.763 129.679C793.103 130.819 791.037 132.363 789.564 134.31C788.092 136.21 787.355 138.585 787.355 141.436C787.355 145.568 788.852 148.727 791.844 150.912C794.885 153.05 798.732 154.119 803.387 154.119Z" fill="#4DA881"/>
<path d="M892.225 219.041C888.378 219.041 884.768 218.732 881.395 218.115C878.07 217.545 875.315 216.809 873.13 215.906L879.97 193.248C883.533 194.34 886.739 194.934 889.589 195.029C892.487 195.124 894.981 194.459 897.071 193.034C899.208 191.609 900.942 189.186 902.272 185.766L904.053 181.135L864.793 68.5547H896.714L919.373 148.928H920.513L943.385 68.5547H975.52L932.982 189.827C930.94 195.718 928.161 200.848 924.646 205.218C921.178 209.636 916.784 213.032 911.464 215.407C906.144 217.83 899.731 219.041 892.225 219.041Z" fill="#4DA881"/>
<path d="M325.887 32.5004C359.887 -7.49964 393.72 13.5004 406.387 29.0004H407.387C407.787 20.6006 413.22 6.1669 415.887 0L425.887 7C418.287 12.6 418.72 34.3333 419.887 44.5H399.387L325.887 32.5004Z" fill="#41A984"/>
<path d="M451.387 66.5C483.787 90.5 489.887 121 486.887 133C459.687 155 415.22 146.5 396.387 139.5C387.187 121.1 361.887 107 349.887 102C350.687 92.4 364.22 77.1667 371.387 71C374.987 70.2 393.22 52 401.887 43H403.887H418.887C427.287 52.2 444.053 62.5 451.387 66.5Z" fill="#FFF212"/>
<path d="M345.4 148C341 124 347.233 104.667 350.9 98C377.701 110.8 391.733 128.667 395.398 136C435.397 152.831 473.553 139.346 487.387 130.5L486.898 143C486.498 150.2 475.398 160.667 469.898 165C462.698 171.8 455.565 181.167 452.898 185C426.898 207 413.732 205.167 410.398 201.5L376.898 182C361.698 175.2 349.566 156.5 345.4 148Z" fill="#FDBC31"/>
<circle cx="443.887" cy="102" r="6" fill="white"/>
<circle cx="424.887" cy="100" r="6" fill="white"/>
<circle cx="434.887" cy="88" r="6" fill="white"/>
</svg>
